# xmcd
#
# Track frame offsets: 
#        150
#        19268
#        35392
#        57687
#        71135
#        82455
#        101380
#        117403
#        139930
#        149965
#
# Disc length: 2219 seconds
#
# Revision: 0
# Processed by: cddbd v1.5.2PL0 Copyright (c) Steve Scherf et al.
# Submitted via: ExactAudioCopy v0.95b4
#
DISCID=a408a90a
DTITLE=Promised Land Quartet - When Men Pray
DYEAR=2001
DGENRE=Southern Gospel
TTITLE0=He Left It All
TTITLE1=I'm Looking For My Savior
TTITLE2=Crown Him King
TTITLE3=Brand New Heart
TTITLE4=When The Lord Sends For His Bride
TTITLE5=It's Time To Wake Up The Master
TTITLE6=Tryin' To Get A Glimpse
TTITLE7=His Love Will Overshadow
TTITLE8=Great Day
TTITLE9=When Men Pray
EXTD=
EXTT0=
EXTT1=
EXTT2=
EXTT3=
EXTT4=
EXTT5=
EXTT6=
EXTT7=
EXTT8=
EXTT9=
PLAYORDER=
